<?xml version="1.0" encoding="UTF-8" standalone="no"?>
<svg
   xmlns:dc="http://purl.org/dc/elements/1.1/"
   xmlns:cc="http://creativecommons.org/ns#"
   xmlns:rdf="http://www.w3.org/1999/02/22-rdf-syntax-ns#"
   xmlns:svg="http://www.w3.org/2000/svg"
   xmlns="http://www.w3.org/2000/svg"
   xmlns:sodipodi="http://sodipodi.sourceforge.net/DTD/sodipodi-0.dtd"
   xmlns:inkscape="http://www.inkscape.org/namespaces/inkscape"
   xml:space="preserve"
   version="1.1"
   style="shape-rendering:geometricPrecision;text-rendering:geometricPrecision;image-rendering:optimizeQuality;"
   viewBox="0 0 688 988.75"
   x="0px"
   y="0px"
   fill-rule="evenodd"
   clip-rule="evenodd"
   id="svg2"
   inkscape:version="0.91 r13725"
   sodipodi:docname="church.svg"
   inkscape:export-filename="/Users/jonathan/OneDrive/Development/wedding/hartsdesire.github.io/img/icons/church.png"
   inkscape:export-xdpi="13.081395"
   inkscape:export-ydpi="13.081395"><metadata
     id="metadata18"><rdf:RDF><cc:Work
         rdf:about=""><dc:format>image/svg+xml</dc:format><dc:type
           rdf:resource="http://purl.org/dc/dcmitype/StillImage" /></cc:Work></rdf:RDF></metadata><sodipodi:namedview
     pagecolor="#ffffff"
     bordercolor="#666666"
     borderopacity="1"
     objecttolerance="10"
     gridtolerance="10"
     guidetolerance="10"
     inkscape:pageopacity="0"
     inkscape:pageshadow="2"
     inkscape:window-width="1440"
     inkscape:window-height="855"
     id="namedview16"
     showgrid="false"
     inkscape:zoom="0.66042984"
     inkscape:cx="344"
     inkscape:cy="494.375"
     inkscape:window-x="0"
     inkscape:window-y="1"
     inkscape:window-maximized="1"
     inkscape:current-layer="g8" /><defs
     id="defs4"><style
       type="text/css"
       id="style6">
   
    .fil0 {fill:black}
   
  </style></defs><g
     id="g8"><path
       class="fil0"
       d="M 0,791 C 3,569 6,347 6,126 l 38,0 0,21 50,0 0,-21 13,0 12,0 13,0 0,21 48,0 0,-21 37,0 0,313 346,0 125,158 0,194 -275,0 0,-90 c 0,-54 -31,-97 -69,-97 -38,0 -68,43 -68,97 l 0,90 z m 161,-153 68,0 0,117 -68,0 z m 305,0 68,0 0,117 -68,0 z m 106,0 68,0 0,117 -68,0 z M 113,209 c 21,0 38,25 38,55 l 0,58 -76,0 0,-58 c 0,-30 18,-55 38,-55 z"
       id="path10"
       inkscape:connector-curvature="0"
       style="fill:#000000"
       sodipodi:nodetypes="ccccccccccccccccccssscccccccccccccccccssccss"
       inkscape:export-filename="/Users/jonathan/OneDrive/Development/wedding/hartsdesire.github.io/img/icons/path10.png"
       inkscape:export-xdpi="9.8100004"
       inkscape:export-ydpi="9.8100004" /></g></svg>