<svg xmlns="http://www.w3.org/2000/svg" xmlns:xlink="http://www.w3.org/1999/xlink" version="1.1" x="0px" y="0px" viewBox="0 0 100 125" enable-background="new 0 0 100 100" xml:space="preserve"><g><path d="M92.261,67.405c-0.418-2.264-1.237-4.458-2.27-6.547c-1.081-2.073-2.479-3.98-4.075-5.706   c-1.591-1.668-3.695-3.227-5.488-4.269l-1.643-0.83c-0.516-0.282-1.069-0.478-1.618-0.683c-1.081-0.458-2.225-0.725-3.352-1.021   c-0.932-0.188-1.872-0.311-2.813-0.396c-0.131-0.021-0.257-0.053-0.39-0.07c-1.892-0.348-3.846-0.357-6.064-0.121   c-0.548,0.056-0.922,0.159-1.396,0.236l-0.679,0.126l-0.341,0.063l-0.19,0.047l-0.047,0.014l-0.029,0.009   c-0.22-0.232-0.457-0.444-0.702-0.648c-1.801-1.912-4.176-3.853-7.26-5.151c-1.615-0.639-3.376-1.217-5.272-1.417   c-0.472-0.053-0.95-0.124-1.433-0.159c-0.485-0.004-0.974-0.008-1.467-0.013c-0.964-0.047-2.059,0.117-3.116,0.226   c-0.443,0.052-0.784,0.137-1.151,0.214l5.855-10.987c-1.711,0.707-3.442,1.402-5.192,2.069c0.091,0.236,0.122,0.501,0.044,0.837   c-0.931,4-1.863,8-2.794,12c-0.115,0.494-0.23,0.987-0.345,1.481c-0.087,0.373-0.541,0.352-0.734,0.096   c-0.179-0.238-0.359-0.477-0.539-0.715c-2.326-3.089-4.653-6.179-6.979-9.268c-0.132-0.175-0.218-0.397-0.298-0.625   c-2.368,0.625-4.751,1.159-7.145,1.546l10.962,6.344c-1.07,0.656-2.097,1.403-3.07,2.226c-1.691,1.443-3.148,3.181-4.398,5.067   c-1.214,1.916-2.156,4.015-2.811,6.21c-0.63,2.208-0.868,4.519-0.805,6.806c0.103,1.143,0.186,2.271,0.461,3.437   c0.203,1.241,0.556,2.046,0.891,3.218c0.248,0.632,0.519,1.25,0.804,1.86c0.286,0.751,0.583,1.46,0.879,2.086   c0.42,0.841,0.802,1.587,1.217,2.195c0.383,0.626,0.718,1.153,1.042,1.531c0.613,0.789,0.941,1.209,0.941,1.209l0.006,0.008   c0,0,0.365,0.395,1.049,1.137c0.327,0.388,0.792,0.802,1.347,1.282c0.532,0.51,1.212,1.007,1.979,1.569   c1.552,1.072,3.563,2.293,6.131,3.116c2.547,0.836,5.643,1.39,9.036,1.054c0.209-0.024,0.424-0.055,0.636-0.082   c0.64-0.024,1.192-0.09,1.719-0.168c0.588,0.604,1.194,1.186,1.84,1.719c1.779,1.413,3.702,2.599,5.738,3.468   c2.051,0.821,4.157,1.432,6.284,1.669c0.706,0.071,1.401,0.112,2.092,0.136c0.852,0.1,1.736,0.172,2.689,0.16   c2.757-0.014,5.958-0.483,9.158-1.916c1.576-0.739,3.238-1.577,4.709-2.799c1.538-1.137,2.892-2.583,4.215-4.287   c0.266-0.392,0.534-0.786,0.803-1.183l0.401-0.596l0.101-0.15l0.099-0.168l0.046-0.086l0.181-0.348   c0.487-0.931,0.991-1.869,1.35-2.888c0.839-1.989,1.291-4.172,1.539-6.392C92.831,71.952,92.64,69.666,92.261,67.405z    M33.116,82.639c-0.339-0.229-0.625-0.487-0.909-0.705c-0.564-0.44-1.04-0.822-1.376-1.186c-0.707-0.693-1.084-1.063-1.084-1.063   c-0.016-0.021-0.342-0.428-0.951-1.188c-0.3-0.341-0.603-0.8-0.938-1.327c0.598,0.793,1.174,1.601,1.882,2.29   c0.706,0.826,1.513,1.543,2.312,2.262c0.691,0.564,1.411,1.08,2.138,1.583C33.812,83.071,33.452,82.848,33.116,82.639z    M48.364,57.956c-1.267,1.944-2.202,4.106-2.887,6.344c-0.643,2.258-0.936,4.61-0.961,6.96c0.052,1.175,0.079,2.336,0.312,3.579   c0.092,0.615,0.186,1.24,0.332,1.71l0.425,1.647c0.719,2.183,1.677,4.282,2.932,6.187c-1.484,0.325-3.174,0.441-4.834,0.396   c-1.86-0.072-3.748-0.488-5.574-1.169c-1.828-0.691-3.526-1.77-5.048-3.062c-1.509-1.318-2.767-2.915-3.79-4.639   c-0.973-1.763-1.618-3.675-2.028-5.608c-0.091-0.889-0.357-2.112-0.313-2.977c-0.067-0.916,0.028-1.895,0.087-2.849   c0.221-1.905,0.635-3.752,1.274-5.499c0.689-1.726,1.535-3.363,2.608-4.814c1.112-1.415,2.308-2.732,3.693-3.78   c1.392-1.022,2.82-1.954,4.36-2.581c0.738-0.386,1.539-0.592,2.301-0.873l0.143-0.052l0.071-0.026l0.036-0.013l0.244-0.06   l0.67-0.165c0.428-0.094,0.927-0.251,1.288-0.292c1.401-0.219,2.998-0.416,4.495-0.31c1.508,0.029,2.959,0.255,4.369,0.513   c1.412,0.313,2.756,0.747,4.006,1.274c0.711,0.474,1.403,1.009,2.054,1.581c-0.016,0.008-0.033,0.011-0.048,0.019   c-2.032,0.785-3.903,2.041-5.673,3.436C51.168,54.281,49.651,56.033,48.364,57.956z M52.945,83.049   c-0.215-0.311-0.426-0.623-0.626-0.944c-0.958-1.622-1.642-3.387-2.142-5.194c-0.117-0.77-0.46-2.094-0.447-2.837   c-0.109-0.84-0.07-1.784-0.061-2.706c0.133-1.841,0.492-3.648,1.118-5.344c0.659-1.683,1.511-3.257,2.531-4.68   c1.076-1.378,2.212-2.682,3.546-3.725c1.311-1.057,2.708-1.974,4.194-2.646c0.526-0.29,1.085-0.488,1.641-0.686   c0.431,0.729,0.819,1.469,1.177,2.282c0.736,1.816,1.249,3.709,1.461,5.628c0.173,1.921,0.123,3.836-0.167,5.695   c-0.345,1.843-0.827,3.648-1.62,5.289c-0.748,1.654-1.667,3.203-2.776,4.559c-0.324,0.448-0.693,0.852-1.069,1.246   c-1.711,1.417-3.669,2.684-5.887,3.705C53.542,82.835,53.242,82.937,52.945,83.049z M88.491,73.789   c-0.191,1.857-0.583,3.667-1.222,5.352c-0.27,0.863-0.678,1.658-1.061,2.454l-0.142,0.299l-0.034,0.075l-0.017,0.038   c-0.008,0.016,0.014-0.019,0.03-0.046l-0.092,0.155l-0.365,0.619c-0.243,0.408-0.484,0.814-0.724,1.217   c-0.461,0.628-0.94,1.276-1.449,1.904c-2.011,1.862-4.483,3.438-7.305,4.485c-0.78,0.261-1.68,0.524-2.414,0.699   c-0.901,0.168-1.874,0.415-2.681,0.437c-1.661,0.21-3.533,0.087-5.301-0.191c-1.794-0.294-3.543-0.916-5.225-1.689   c-1.603-0.789-3.09-1.82-4.453-2.999c3.504-1.438,6.405-3.784,8.367-6.424c1.274-1.731,2.165-3.545,2.786-5.303   c0.009-0.02,0.019-0.039,0.029-0.059c0.9-1.989,1.428-4.157,1.775-6.359c0.312-2.216,0.232-4.492-0.077-6.737   c-0.359-2.245-1.06-4.434-2-6.517c-0.287-0.611-0.629-1.222-0.99-1.826c0.645-0.108,1.251-0.272,1.971-0.307   c0.385-0.043,0.765-0.086,1.143-0.128c0.381-0.004,0.759-0.009,1.134-0.013c1.508-0.015,2.979,0.146,4.395,0.408   c2.825,0.562,5.347,1.719,7.357,3.113c0.669,0.458,1.256,0.951,1.806,1.451c1.162,1.42,2.165,2.953,2.923,4.596   c0.795,1.817,1.37,3.702,1.692,5.609C88.613,70.012,88.73,71.93,88.491,73.789z"/><path d="M40.92,30.973c0.258,0.284,0.52,0.516,0.743,0.746c2.013-0.753,4.012-1.535,5.998-2.322   c0.041-0.017,0.078-0.018,0.115-0.02l-6.395-4.354l-4.53,1.463C38.207,27.981,39.564,29.477,40.92,30.973z"/><path d="M41.381,32.674c-0.001,0-0.001-0.001-0.001-0.001c-3.232,1.214-6.523,2.32-9.85,3.241c0.169,0.587,0.431,1.152,0.833,1.686   c1.531,2.032,3.061,4.065,4.592,6.097c0.497,0.661,0.995,1.322,1.493,1.983c0.956-4.105,1.912-8.209,2.868-12.313   C41.509,32.534,41.555,32.866,41.381,32.674z"/><path d="M31.187,28.314l-5.017,1.62l-2.856,7.195c2.356-0.444,4.69-1.011,7.006-1.656c-0.289-2.121,0.662-5.352,0.825-7.019   C31.15,28.4,31.167,28.356,31.187,28.314z"/><path d="M31.368,35.173c3.18-0.922,6.323-1.991,9.432-3.139c-0.472-0.52-0.943-1.04-1.415-1.56   c-1.124-1.239-2.249-2.479-3.373-3.718l-4.232,1.366c0.107,0.059,0.184,0.165,0.167,0.331   C31.719,30.781,31.051,33.099,31.368,35.173z"/><path d="M16.986,15.048c-0.958-0.761-2.968-2.427-3.798-3.325c-0.417-0.452-1.106,0.081-0.752,0.591   c0.779,1.123,2.785,2.793,3.903,3.588C16.903,16.304,17.528,15.478,16.986,15.048z"/><path d="M16.434,31.894c-2.919,0.692-5.862,1.216-8.802,1.797c-0.585,0.116-0.331,0.982,0.244,0.885   c2.953-0.497,5.873-1.159,8.772-1.908C17.15,32.539,16.937,31.774,16.434,31.894z"/><path d="M26.953,23.899c-1.79-1.733-3.507-3.564-5.622-4.912c-0.778-0.496-1.534,0.594-0.951,1.232   c1.693,1.852,3.713,3.371,5.97,4.461C26.841,24.916,27.379,24.311,26.953,23.899z"/><path d="M37.3,13.746c-0.073-0.829-1.17-0.805-1.271,0c-0.309,2.479-0.24,4.949,0.253,7.397c0.095,0.467,0.766,0.326,0.792-0.107   C37.218,18.609,37.514,16.176,37.3,13.746z"/><path d="M37.185,8.799c0.046-0.575,0.142-1.136,0.26-1.7c0.11-0.525,0.076-0.957,0.001-1.484c-0.13-0.916-1.414-0.72-1.66,0   c-0.353,1.032-0.359,2.096-0.285,3.184C35.576,9.887,37.098,9.88,37.185,8.799z"/><path d="M48.598,22.157c0.279-0.252,0.482-0.329,0.826-0.457c0.33-0.123,0.561-0.346,0.819-0.576   c0.596-0.531,1.147-1.042,1.647-1.668c0.511-0.64-0.253-1.402-0.893-0.893c-0.617,0.491-1.217,0.983-1.809,1.506   c-0.554,0.49-0.698,1.1-1.1,1.694C47.872,22.082,48.336,22.396,48.598,22.157z"/><path d="M53.901,17.064c1.737-1.631,3.595-3.119,5.172-4.908c0.344-0.39-0.177-0.907-0.568-0.568   c-1.801,1.561-3.401,3.314-4.983,5.097C53.294,16.942,53.648,17.302,53.901,17.064z"/></g><text x="0" y="115" fill="#000000" font-size="5px" font-weight="bold" font-family="'Helvetica Neue', Helvetica, Arial-Unicode, Arial, Sans-serif">Created by Nick Abrams</text><text x="0" y="120" fill="#000000" font-size="5px" font-weight="bold" font-family="'Helvetica Neue', Helvetica, Arial-Unicode, Arial, Sans-serif">from the Noun Project</text></svg>