<svg xmlns="http://www.w3.org/2000/svg" xmlns:xlink="http://www.w3.org/1999/xlink" version="1.1" x="0px" y="0px" viewBox="0 0 100 125" enable-background="new 0 0 100 100" xml:space="preserve"><g><path d="M23.915,40.812c0,0,1.009-0.635,1.221-0.85c0.211-0.215,0.188-0.136,0.446-0.371c0.258-0.235,0.165-0.188,0.235-0.259   c0.07-0.07,0.188-0.164,0.258-0.211c0.07-0.046,0.282-0.188,0.587-0.399c0.305-0.211,0.117-0.07,0.376-0.258   c0.258-0.188,0.094-0.164,0.165-0.353c0.07-0.188,0.117-0.188,0.398-0.357c0.282-0.172,0.587-0.088,0.658-0.159   c0.07-0.07,0.587,0,0.587,0l0.493-0.234c0,0,0.399-0.61,0.446-0.728c0.046-0.117,0.352-0.868,0.352-0.868l-0.587,0.141   c0,0-0.376,0.14-0.446,0.254c-0.071,0.115-1.457,0.426-1.644,0.497c-0.188,0.071-0.329,0.071-0.47,0.118   c-0.141,0.046-0.446,0.14-0.517,0.14c-0.07,0-0.657,0.446-0.751,0.517c-0.094,0.071-0.54,0.564-0.54,0.564   s-0.094,0.164-0.118,0.235c-0.023,0.07-0.188,0.234-0.188,0.234s-0.234,0.329-0.258,0.435c-0.024,0.106-0.212,0.27-0.282,0.364   c-0.07,0.093-0.211,0.446-0.258,0.52c-0.046,0.075-0.54,0.537-0.61,0.606c-0.07,0.071-0.141,0.423-0.141,0.423   S23.375,41.07,23.915,40.812z"/><path d="M28.541,42.22c-0.071,0.023-0.517,0.822-0.517,0.822s-0.211,0.563-0.258,0.657c-0.047,0.094-0.399,0.517-0.446,0.54   c-0.047,0.024-0.305,0.118-0.423,0.118s-0.775,0.211-0.869,0.234c-0.094,0.024-0.375,0.117-0.493,0.188   c-0.117,0.07-0.188,0.198-0.188,0.357c0,0.159-0.046,0.746,0,0.91c0.047,0.164,0.165,0.611,0.188,0.728   c0.024,0.118,0.329,0.493,0.329,0.493s0.54,0.023,0.751,0.118c0.211,0.093,0.775,0.822,0.845,0.846c0.07,0.022,0.211,0,0.211,0   s0.493-0.259,0.563-0.423s0.305-0.896,0.305-0.896s-0.117-0.607,0-0.701c0.118-0.093,0.282-0.422,0.282-0.422s0.024-0.986,0-1.056   c-0.024-0.072-0.07-0.376-0.094-0.494c-0.024-0.118-0.07-0.618-0.094-0.803c-0.023-0.183-0.333-0.605-0.272-0.7   C28.423,42.643,28.541,42.22,28.541,42.22z"/><path d="M25.699,55.321c-0.117-0.281-0.094-0.904-0.165-0.992c-0.07-0.088-0.939-0.17-1.045,0   c-0.105,0.171-0.307,0.476-0.307,0.476s-0.038,0.893,0,1.011c0.038,0.117,0.131,0.422,0.307,0.586   c0.176,0.164,0.031,0.353,0.257,0.611c0.225,0.258,0.46,0.609,0.46,0.609l1.174-0.82c0,0-0.046-0.165,0-0.306   C26.428,56.354,25.817,55.604,25.699,55.321z"/><path d="M23.63,56.871c0,0-0.561,0.329-0.584,0.47c-0.023,0.142-0.084,0.574-0.084,0.574s0.208,0.295,0.334,0.225   c0.126-0.071,0.501,0,0.501,0l0.282-0.399l0.235-0.158c0,0-0.098-0.305-0.131-0.331c-0.033-0.027-0.017-0.169-0.017-0.169   L23.63,56.871z"/><path d="M30.842,37.559c0.164,0.035,0.352,0.059,0.493-0.012c0.14-0.07,0.399,0.047,0.54,0c0.141-0.046,0.164-0.164,0.34-0.188   c0.176-0.024,0.153-0.306,0.153-0.306s0.329-0.258,0.49-0.375c0.162-0.117,0.308-0.282,0.496-0.381   c0.188-0.1,0.258-0.277,0.165-0.441c-0.094-0.165,0.282-0.399,0.516-0.587c0.235-0.188,0.728-0.586,0.903-0.704   c0,0-0.574,0.118-0.691,0.217c-0.117,0.101-0.305,0.019-0.422,0c-0.118-0.017-0.282,0.135-0.376,0.112s-0.59,0.188-0.59,0.188   s-0.889,0.235-1.077,0.258c-0.188,0.024-0.329,0.024-0.775,0.094c-0.446,0.07-0.188,0.118-0.188,0.211   c0,0.094,0.094,0.234,0.117,0.513c0.023,0.279-0.07,0.051-0.305,0.38c-0.235,0.328-0.164,0.353-0.188,0.939   C30.419,38.064,30.677,37.524,30.842,37.559z"/><path d="M35.068,35.998c0.329,0.188,0.634,0.07,0.892,0.234c0.258,0.164,0.611-0.023,0.799-0.118s0.657-0.446,0.751-0.421   c0.094,0.024,0.517-0.189,0.563-0.048c0.047,0.141,0.728-0.07,0.893-0.117c0.164-0.048,0.798-0.235,0.986-0.329   c0.188-0.094,0.446-0.376,0.469-0.587c0.023-0.211-0.117-0.61-0.165-0.798c-0.046-0.188-0.375-0.493-0.398-0.657   c-0.024-0.165,0.094-0.611,0.188-0.795c0,0-0.376,0.161-0.587,0.349s-0.305,0.235-0.658,0.375   c-0.353,0.141-0.517,0.235-0.751,0.365c-0.235,0.129-0.541,0.152-0.869,0.201c-0.329,0.048-0.729,0.444-1.01,0.655   c-0.281,0.211-0.728,0.564-0.892,0.751C35.115,35.247,34.739,35.81,35.068,35.998z"/><path d="M38.686,45.137c-0.119-0.311-0.049-0.521-0.237-0.756c-0.188-0.235-0.328-0.462-0.469-0.537   c-0.141-0.074-0.081-0.051-0.299-0.309c-0.217-0.258-0.265-0.305-0.429-0.517c-0.164-0.211-0.258-0.352-0.305-0.423   c-0.047-0.069-0.751-0.14-0.751-0.14c0-0.117,0.704-0.869,0.164-0.352c-0.54,0.517-1.104,1.056-1.244,1.126   c-0.141,0.071-0.423,0.305-0.517,0.353c-0.094,0.047-0.517,0.328-0.564,0.398c-0.047,0.071-0.211,0.165-0.211,0.306   s0.188,0.704,0.188,0.704s0.422,0.188,0.681,0.282c0.259,0.094,0.501,0.423,0.501,0.423s0.368-0.188,0.532,0.281   c0.165,0.47,0.234-0.117,0.47,0.798c0.235,0.916,0.422,1.197,0.54,1.315c0.118,0.118,0.165,0.235,0.235,0.258   c0.07,0.023,0.446-0.164,0.446-0.164s0.306-0.305,0.375-0.399c0.071-0.094,0.306-0.047,0.446-0.517   c0.141-0.47,0.165-0.61,0.211-0.751c0.048-0.142,0.259,0.023,0.235-0.586C38.661,45.319,38.805,45.447,38.686,45.137z"/><path d="M32.438,41.374c0.164,0.118,0.211,0.446,0.305,0.822c0.094,0.375,0.141,0.634,0.306,0.962   c0.164,0.329,0.164,0.728,0.352,0.682c0.188-0.047,0.657-0.655,0.916-0.938c0.259-0.283,0.846-0.729,1.057-0.823   c0.211-0.094,0.517-0.305,0.657-0.563s0.118-0.329,0-0.775c-0.117-0.447-0.141-0.447-0.141-0.893c0-0.446,0-0.61,0-0.61   c-0.024-0.705,0.1-0.658,0.238-0.939c0.138-0.282,0.513-0.517,0.373-0.775c-0.141-0.258-0.423-0.563-0.423-0.563   c-0.376-0.587-0.587-0.517-0.845-0.54c-0.258-0.024-0.329,0-0.47,0c-0.141,0-0.586,0-0.586,0c-0.142,0.118-0.353,0.586-0.635,0.845   c-0.281,0.258-0.798,0.517-0.939,0.728c-0.141,0.211-0.305,0.375-0.353,0.586c-0.046,0.212-0.046,1.12,0,1.381   c0.047,0.263,0.212,0.615,0.235,0.826C32.508,40.999,32.274,41.257,32.438,41.374z"/><path d="M23.891,43.559c0.118,0.023,1.174,0.68,1.174,0.68s0.798-0.493,0.869-0.563c0.071-0.07,0.658-0.239,0.658-0.239   l0.399-0.113l0.423-0.728c0,0,0.61-1.15,0.61-1.126c0,0.024-0.329-0.657-0.352-0.845c-0.024-0.188,0.141-1.244,0.141-1.244   l-0.141-0.682c-0.094,0.071-0.728,0.893-0.798,0.917c-0.07,0.022-0.939,0.656-1.01,0.656s-0.775,0.33-0.775,0.33   s-0.281,0.183-0.352,0.326c-0.071,0.144-0.423,0.284-0.54,0.402c-0.118,0.117-0.376,0.336-0.376,0.336l-0.234,0.274   c0,0-0.165,0.8-0.258,0.963c-0.094,0.163-0.282,0.534-0.282,0.534S23.774,43.535,23.891,43.559z"/><path d="M23.638,62.413c-0.028,0.211-0.007,0.681-0.007,0.681s0.211,0.117,0.272,0.117c0.06,0,0.412,0.07,0.412,0.07h0.352v-0.423   l-0.485-0.61C24.103,62.155,23.666,62.201,23.638,62.413z"/><path d="M23.352,56.073l0.258-0.07c0,0,0.047-0.587,0-0.869c-0.047-0.282-0.564-1.244-0.564-1.244l-0.282-0.235l-0.305-0.164   l-0.827,0.399c0,0-0.277,0.634-0.16,0.892c0.117,0.259,0.535,1.245,0.479,1.479c-0.056,0.235,0.108,1.644,0.108,1.644   s0.235,0.023,0.258,0s0.282-1.103,0.282-1.103L23.352,56.073z"/><path d="M23.774,60.887c0.023-0.07-0.137-0.541-0.137-0.541l-0.007-0.342c0,0-0.162-0.198-0.185-0.268   c-0.023-0.07-0.047-0.27-0.023-0.369c0.023-0.101,0.208-0.57,0.208-0.57c-0.091-0.023-1.093,0-1.093,0v0.435l-0.078,0.974v0.517   c0,0,0.141,0.541,0.188,0.635s0.314,0.892,0.314,0.892l0.484-1.033C23.445,61.215,23.751,60.957,23.774,60.887z"/><path d="M25.535,59.367V58.68l-0.774-0.54c-0.07,0.023-0.615,0.423-0.578,0.492c0.038,0.071,0.28,0.507,0.288,0.735   c0.008,0.228-0.18,0.486-0.18,0.604c0,0.118,0.47-0.117,0.47-0.117l0.514-0.329L25.535,59.367z"/><path d="M20.933,47.268c0.094-0.094,0.281-0.356,0.281-0.356l0.142-0.137l0.211-0.277l0.144-0.427l0.443-0.352   c0,0,0.117-0.165,0.165-0.235c0.047-0.071,0.188-0.517,0.188-0.611c0-0.093-0.024-0.908-0.024-1.029   c0-0.122-0.023-0.408-0.023-0.408s-0.024-0.16-0.024-0.229c0-0.071,0.094-0.304,0.094-0.304s0.235-0.448,0.258-0.519   c0.024-0.07,0.258-0.798,0.258-0.798c-0.188,0.023-0.704,0.798-0.869,1.009c-0.165,0.212-0.375,0.627-0.47,0.841   c-0.094,0.217-0.445,0.827-0.47,0.803c-0.023-0.023-0.446,0.992-0.446,0.992s-0.117,0.065-0.211,0.182   c-0.094,0.118-0.165,0.447-0.188,0.658c-0.024,0.211-0.024,0.657,0,0.704c0.023,0.047,0.117,0.493,0.117,0.493   C20.675,47.386,20.839,47.362,20.933,47.268z"/><path d="M39.764,36.021c-0.165,0.023-0.565,0.388-0.706,0.277c-0.14-0.112-0.656-0.112-0.774-0.112c-0.117,0-0.55-0.023-0.604,0   c-0.053,0.023-0.382,0.188-0.429,0.282c-0.047,0.094-0.141,0.258-0.188,0.352c-0.047,0.094,0.047,0.142,0,0.471   c-0.047,0.328,0.114,0.492-0.014,0.61s-0.221,0.399-0.268,0.469c-0.047,0.071-0.071,0.236-0.117,0.375   c-0.047,0.141-0.165,0.071-0.165,0.587c0,0.517,0.282,1.057,0.282,1.245c0,0.188,0.047,0.657,0.211,0.916   c0.165,0.258,0.577,0.892,0.688,1.009c0.111,0.118,0.698,0.422,0.768,0.399c0.071-0.022,0.303-0.562,0.61-0.961   c0.307-0.4,0.709-0.917,1.001-1.246c0.292-0.328,0.287-0.211,0.665-0.845c0.378-0.634,0.401-0.703,0.331-0.951   c-0.07-0.247-0.141-0.317-0.118-0.552s0.446-0.61,0.493-0.775c0.047-0.164-0.094-0.235,0-0.375   c0.094-0.142,0.258-0.517,0.282-0.657c0.023-0.142,0.044-0.211,0.14-0.376c0.095-0.164,0.264-0.282,0.238-0.399   c-0.026-0.118-0.026,0.093-0.026-0.118c0-0.211,0.069-0.281-0.083-0.329c-0.152-0.047-0.319-0.087-0.387-0.117   c-0.211-0.094-0.446-0.305-0.446-0.305s-0.535,0.399-0.725,0.61C40.234,35.716,39.928,35.998,39.764,36.021z"/><path d="M22.083,52.692c0,0,0.305-0.353,0.329-0.458c0.023-0.105,0.305-0.91,0.375-1.049c0.07-0.137,0.212-0.513,0.165-0.606   c-0.046-0.094-0.352-0.681-0.47-0.821c-0.117-0.142-0.329-0.611-0.54-0.729c-0.211-0.117-0.399-0.141-0.493-0.306   c-0.094-0.164-0.141-0.307-0.235-0.483c-0.094-0.174-0.117-0.292-0.117-0.292c-0.094,0-0.094,0-0.094,0s-0.517,0.462-0.517,0.571   c0,0.11,0.141,1.321,0.141,1.349c0,0.029,0.118,1.132,0.118,1.132s0.446,0.728,0.517,0.916c0.07,0.188,0.234,1.081,0.234,1.081   L22.083,52.692z"/><path d="M26.498,49.219c0.047-0.138,0.234-0.471,0.234-0.565s-0.211-0.094-0.305-0.191c-0.094-0.097-0.282-0.114-0.353-0.111   c-0.07,0.001-0.749-0.449-0.749-0.449s-0.308-0.353-0.425-0.554c-0.118-0.203-0.094-0.268-0.141-0.436   c-0.047-0.168-0.141-0.583-0.141-0.583s-0.047-0.422-0.024-0.682c0.024-0.257,0.165-0.775,0.165-0.845s-0.188-0.211-0.188-0.211   l-0.446-0.125c0,0-0.916-0.321-1.081-0.346c0,0,0.071,0.4,0,0.517c-0.07,0.118,0,0.593,0,0.593s-0.188,0.324-0.234,0.394   c-0.047,0.071-0.188,0.376-0.282,0.494c-0.094,0.117-0.258,0.38-0.258,0.38s-0.375,0.348-0.561,0.536   c-0.185,0.188,0.021,0.751,0,0.892c-0.02,0.142,0.491,0.283,0.631,0.316c0.141,0.034,0.61,0.718,0.704,0.789   c0.094,0.07,0.611,0.445,0.681,0.657s0.306,0.704,0.352,0.775c0.047,0.069,0.282-0.095,0.423-0.186   c0.141-0.091,0.47-0.074,0.563-0.011s0.563-0.18,0.634-0.18c0.071,0,0.353-0.328,0.353-0.328S26.451,49.357,26.498,49.219z"/><path d="M75.172,18.881c0.211,0.117,3.357-2.066,3.311-2.442c-0.047-0.376-0.75-0.631-1.104-0.902   c-0.352-0.272-1.244-1.164-1.244-1.164c-0.211,0.188-0.939,0.398-0.963,0.798c-0.023,0.399,0.375,1.567,0.328,1.875   C75.455,17.354,74.959,18.764,75.172,18.881z"/><path d="M56.834,38.651c0.259-0.118,0.399-0.61,0.424-0.751c0.025-0.141-0.049-0.704-0.118-0.792   c-0.069-0.09-0.517-0.194-0.595-0.381c-0.075-0.188-0.438-1.292-0.587-1.526c-0.147-0.234-0.744-0.893-0.744-0.893l-0.667,0.446   l-0.813,0.376l-0.822,0.563l-0.985,0.755c0,0-0.892-0.496-1.01,1.477c-0.117,1.972,1.949,3.147,2.043,3.194   c0.095,0.046,1.033-0.259,1.315-0.236c0.281,0.022,0.893-0.14,0.938-0.327c0.048-0.188,0.61-0.939,0.639-1.057   C55.881,39.379,56.576,38.769,56.834,38.651z"/><path d="M58.549,26.618c0.328,0.035,0.14,0.363,0.14,0.739c0,0.375,1.667,1.996,1.95,2.042c0.281,0.047,2.348-2.16,2.488-2.371   c0.141-0.211-0.375-1.949-0.445-2.16c-0.072-0.211,0.141-0.916,0.234-1.033c0,0-0.846,0.117-0.986,0.188   c-0.141,0.07-1.361,0.398-1.484,0.563c-0.121,0.165-1.545,0.376-2.039,0.4c-0.492,0.022-0.468-0.023-0.586,0.164   c-0.117,0.188-0.094,0.563,0,0.845C57.914,26.277,58.221,26.582,58.549,26.618z"/><path d="M69.467,19.539c0.236-0.024,1.619-1.926,1.619-1.926l-3.17,1.755C67.916,19.368,69.232,19.561,69.467,19.539z"/><path d="M53.924,45.225c0.093,0.047,0.656,0.329,0.727,0.399c0.07,0.071,0.423,0.329,0.682,0.447   c0.258,0.117,0.844,0.376,0.892,0.304c0.047-0.07,0.222-0.61,0.321-0.868c0.102-0.258,0.242-0.54,0.406-0.586   c0.164-0.048,0.023-0.54-0.211-1.057c-0.234-0.518-0.555-0.916-0.782-1.221c-0.227-0.306-0.321-0.423-0.532-0.587   c-0.212-0.164-0.586-0.399-0.879-0.375c-0.295,0.022-0.813-0.098-0.93-0.003c-0.117,0.096-0.305,0.261-0.305,0.261   c-0.047,0.234,0.164,1.337,0.188,1.501c0.023,0.165,0.094,0.971,0,1.213C53.406,44.896,53.829,45.179,53.924,45.225z"/><path d="M58.713,24.351c0.211-0.046,0.916-0.258,1.197-0.375c0.281-0.117,1.502-0.399,1.807-0.422   c0.307-0.023,0.965-0.329,1.152-0.353s0.398-0.281,0.492-0.52s0.189-0.701,0.32-0.983c0,0-5.392,2.137-5.509,2.137   c-0.118,0-0.306,0.446-0.188,0.657C58.103,24.704,58.501,24.398,58.713,24.351z"/><path d="M81.781,11.085c0.178-0.107,0.172-0.172,0.305-0.277c0.092-0.073,0.162-0.219,0.23-0.267   c-0.051-0.028-0.123-0.198-0.217-0.267c-0.24-0.174-0.426-0.277-0.766-0.277C81.129,10.3,81.268,10.955,81.781,11.085z"/><path d="M80.738,7.291c-0.133-0.259,0.033-1.043-0.195-1.227c-0.182-0.148-0.867-0.223-0.943,0c-0.08,0.237,0.41,0.649,0.482,0.879   c-0.178,0.112-0.344,0.146-0.482,0.263c0.184,0.463,0.953,1.142,1.404,1.142l0.484-0.396C81.504,7.697,80.857,7.518,80.738,7.291z"/><path d="M26.383,64.479c-0.167-0.023-0.589,0-0.589,0s-0.354,0.211-0.26,0.281c0.094,0.07,0.164,0.398,0.246,0.422   c0.083,0.024,0.412-0.023,0.482,0c0.071,0.024,0.175,0.085,0.251,0.008c0.077-0.077,0.218-0.103,0.218-0.337   c0-0.233-0.094-0.374-0.094-0.374S26.55,64.502,26.383,64.479z"/><path d="M78.787,15.626c0.234-0.093,0.924-1.358,0.916-1.88c-0.008-0.416-0.254-1.405-0.65-1.53   c-0.803,0.643-1.789,1.376-2.25,1.705C76.945,14.56,78.553,15.718,78.787,15.626z"/><path d="M52.842,29.4c0.235,0.095,0.799,0.375,1.034,0.352c0.233-0.023,0.798-0.893,0.892-1.104   c0.095-0.211,0.259-0.751,0.446-1.033c0.188-0.282,1.502-1.573,1.667-1.832c0.164-0.258,0.4-1.22,0.376-1.291   c0,0-2.207,1.01-2.325,1.08c-0.117,0.071-0.398,0.282-0.385,0.47c0.012,0.188-0.084,0.281-0.226,0.191   c-0.14-0.091-0.54-0.097-0.657,0c-0.117,0.097-0.846,0.584-0.846,0.725c0,0.14,0.142,0.469,0.118,0.681   c-0.024,0.211-0.446,0.329-0.54,0.493c-0.094,0.164-0.563,0.704-0.563,0.704S52.607,29.306,52.842,29.4z"/><path d="M46.878,28.79c-0.094,0.117-0.845,0.815-0.845,0.815s-0.329,1.978-0.117,2.002c0.211,0.023,0.916-0.165,0.916-0.165   s-0.142,0.399-0.211,0.469c-0.071,0.07-0.211,0.259-0.423,0.329c-0.211,0.071-0.493,0.422-0.516,0.516   c-0.023,0.095-0.235,0.556-0.235,0.556s0.563,0.384,0.751,0.478c0.188,0.094,0.963,0.375,1.057,0.352   c0.094-0.023,0.329,0.047,0.399-0.093c0.07-0.142,2.16-3.288,2.184-3.358c0.023-0.07,0.517-1.291,0.517-1.291   c-0.071-0.118-1.245-0.236-1.245-0.236l-0.99-0.517c0,0-0.231-0.258-0.489-0.234C47.372,28.437,46.972,28.672,46.878,28.79z"/><path d="M47.912,28.061c0.118,0.165,3.005,0.822,3.227,0.869c0.221,0.047,0.905-1.62,0.953-1.807   c0.046-0.187-0.893-0.399-1.104-0.505c-0.211-0.105-0.728,0.27-0.798,0.176c-0.071-0.094,0.54-0.353,0.681-0.446l-2.734,0.384   c0,0-0.271,0.556-0.154,0.448c0.117-0.109,0.916-0.198,0.869-0.056C48.804,27.265,47.794,27.897,47.912,28.061z"/><path d="M46.268,28.718c0.094-0.023,0.61-0.516,0.681-0.586c0.07-0.071-0.282-0.211-0.47-0.282h-0.094L45,28.728l-0.61,0.877h0.657   C45.047,29.605,46.174,28.742,46.268,28.718z"/><path d="M41.103,33.791c0,0.211,0.962,0.446,1.01,0.681c0.046,0.235,0.681,0.422,0.775,0.235c0.094-0.188,0.845-0.681,0.962-0.752   c0.117-0.07,0.963-0.681,1.057-0.798c0.094-0.118,0.329-1.574,0.376-1.785c0.046-0.211,0.07-0.845,0-0.893   c-0.071-0.046-0.423-0.235-0.563-0.292c-0.141-0.058-0.611,0.692-0.611,0.692s-0.822,0.939-0.916,0.939   c-0.094,0-0.305-0.211-0.305-0.211s0.493-0.705,0.54-0.775c0.047-0.07,0.353-0.446,0.353-0.517c0-0.071-0.023-0.352-0.211-0.376   c0,0-0.399,0.4-0.543,0.47c-0.143,0.07-0.96,0.775-1.078,0.869s-0.705,0.704-0.892,0.754c-0.188,0.049-0.353,0.702-0.329,0.842   C40.75,33.016,41.103,33.58,41.103,33.791z"/><path d="M47.278,43.018c0.165,0.141,0.798,0.751,0.939,0.775c0.141,0.023,0.517,0.493,0.587,0.657   c0.07,0.165,0.305,0.705,0.399,0.846c0.094,0.14,0.798-0.047,1.01,0c0.211,0.047,1.361-0.211,1.62-0.329s0.681-0.188,0.774-0.493   c0.094-0.304-0.305-1.033-0.258-1.502c0.047-0.47-0.044-1.362-0.257-1.597c-0.213-0.234-0.729-0.318-0.94-0.253   c-0.212,0.065-0.292,0.181-0.24-0.241c0.052-0.421,0.16-0.421,0-0.798c-0.159-0.375-0.206-0.328-0.23-0.539   c-0.023-0.212-0.07-0.118-0.141-0.423c-0.07-0.305-0.188-0.328-0.188-0.563c0-0.235,0-0.235,0-0.235s-1.245,0.798-1.526,1.01   c-0.282,0.212-1.86,1.242-1.869,1.549c-0.009,0.306-0.597,1.058-0.573,1.269C46.409,42.36,47.114,42.878,47.278,43.018z"/><path d="M50.142,37.5c0.094,0.023,0.963-2.066,1.221-2.184c0.258-0.117,0.986-0.422,1.104-0.47   c0.117-0.046,2.442-1.029,2.396-1.195c-0.048-0.166-1.315-2.819-1.315-2.819s-0.211,0.047-0.328,0.07   c-0.118,0.023-0.212-0.211-0.259-0.375c-0.048-0.165-1.737-1.126-1.737-1.126c-0.07,0.14-1.01,1.525-1.104,1.713   c-0.094,0.188-1.08,1.973-1.174,2.067c-0.094,0.094-0.892,1.174-0.822,1.338C48.193,34.683,50.048,37.477,50.142,37.5z"/><path d="M44.39,40.88c0.211,0.165,0.587,0.564,0.681,0.682c0.094,0.118,0.456,0.352,0.604,0.375s0.571-0.554,0.688-0.817   c0.118-0.264,0.394-0.38,0.597-0.803c0.202-0.423,0.601-0.682,0.941-0.869c0.341-0.188,0.834-0.775,0.974-0.986   c0.142-0.211,0.517-0.352,0.635-0.469c0.117-0.118-0.048-0.117-0.142-0.493s-0.563-0.54-0.798-0.798s-0.442-0.458-0.667-0.404   c-0.226,0.052,0.08-0.112-0.002-0.394c-0.082-0.282-0.035-0.094-0.27-0.493c-0.235-0.399-0.188-0.306-0.352-0.493   c-0.164-0.188-0.258-0.235-0.517-0.235s-0.305,0-0.587-0.093c-0.282-0.095-0.155-0.097-0.5-0.26   c-0.345-0.164-0.885-0.28-0.885-0.28c-0.07,0.046-0.892,0.481-1.15,0.733c-0.258,0.252-0.498,0.605-0.613,0.675   c-0.115,0.071-0.374,0.686-0.467,0.989s-0.165,0.942-0.305,1.268s-0.375,0.654-0.399,0.89c-0.023,0.235,0.305,0.633,0.446,0.868   s0.892,0.893,1.021,0.962c0.129,0.071,0.177-0.188,0.458-0.304c0.282-0.118,0.329,0.117,0.305,0.316   C44.061,40.646,44.178,40.714,44.39,40.88z"/><path d="M58.242,30.997c0.164-0.047,1.34-1.031,1.387-1.243c0.047-0.213-2.489-3.03-2.489-3.03   c-0.165,0.07-1.128,0.986-1.151,1.056s-0.634,0.845-0.727,1.057c-0.094,0.211-0.986,0.963-0.986,1.198s0.072,0.963,0.271,1.245   c0.197,0.281,1.02,2.442,1.16,2.371c0.141-0.07,1.738-2.16,1.832-2.371C57.632,31.066,58.078,31.043,58.242,30.997z"/><path d="M25.326,50.813c0,0-0.167,0.118-0.261,0.188c-0.094,0.071-0.399,0.399-0.493,0.399s-0.845,0-0.845,0h-0.211l-0.47,0.963   v0.54l0.094,0.25c0,0,0.282,0.385,0.353,0.408c0.07,0.022,0.516,0.328,0.516,0.328s0.634-0.423,0.751-0.517   c0.117-0.095,0.376-0.329,0.399-0.399c0.024-0.07,0.423-0.399,0.375-0.622c-0.046-0.223-0.086-0.558,0.004-0.684   c0.09-0.127,0.09-0.502,0.138-0.667c0.047-0.164,0.258-0.422,0.258-0.422L25.326,50.813z"/><path d="M64.137,32.922c-0.189,0.023-1.127,0.047-1.15-0.094c-0.023-0.142-0.164-0.329-0.281-0.329   c-0.119,0-1.473,1.597-1.465,1.527c0.008-0.071,0.83-1.527,0.9-1.738c0.07-0.211-1.695-2.101-1.695-2.101   c-0.137-0.083-0.697,0.504-0.816,0.551c-0.119,0.046-1.128,0.962-1.175,1.033c-0.048,0.07-0.868,0.798-0.892,0.869   c-0.021,0.066-0.682,0.646-0.709,0.72c-0.053-0.008-0.23,0.008-0.302,0.292c-0.093,0.375,0.845,1.9,1.058,1.947   c0.211,0.047,0.693,0.422,0.887,0.376c0.192-0.047,0.662-0.587,0.686-0.353c0.025,0.235-0.094,0.799,0.117,0.822   s0.729-0.117,0.986-0.306c0.26-0.188,1.221-0.61,1.48-0.751c0.258-0.141,2.793-1.895,2.84-2.074   C64.652,33.133,64.324,32.898,64.137,32.922z"/><path d="M67.801,28.554c-0.166-0.094-0.564-0.916-0.705-0.939s-0.705,0-0.916-0.117s-1.104-0.141-1.314-0.141   c-0.213,0-1.1-0.305-1.184-0.118c-0.084,0.188-2.01,2.184-2.293,2.278c-0.281,0.094-0.094,0.141,0,0.282   c0.096,0.14,1.293,0.493,1.551,0.798s0.775,0.633,0.939,0.751c0.164,0.117,1.01,0.728,1.291,0.681   c0.281-0.048,3.311-2.372,3.311-2.372C68.504,29.399,67.965,28.648,67.801,28.554z"/><path d="M58.385,37.148c-0.212,0.094-0.705,1.315-0.775,1.432c-0.07,0.118-0.281,0.563-0.352,0.893   c-0.067,0.329-0.377,0.422-0.542,0.586c-0.164,0.165-0.445,0.4-0.562,0.611c-0.118,0.211-0.259,0.634-0.166,0.822   c0.094,0.188,0.611,0.986,0.799,1.197c0.188,0.211,0.634,1.456,0.799,1.808c0.164,0.352,0.635,0,0.773,0s0.377-0.164,0.377-0.164   s-0.352-3.616-0.375-3.898c-0.024-0.281,0.188-1.596,0.258-1.761c0.069-0.164,0.773-1.339,1.01-1.526   C59.629,37.148,58.596,37.054,58.385,37.148z"/><path d="M68.223,20.313c-0.094-0.212-0.986-0.165-0.986-0.165s-3.357,2.935-3.521,3.334c-0.164,0.399,0.328,2.701,0.68,2.888   c0.354,0.188,2.959,0.141,3.24,0s1.598-2.864,1.645-3.052s-0.752-1.479-0.893-1.714S68.316,20.524,68.223,20.313z"/><path d="M55.164,48.748c0.091-0.423,0.098-0.893,0-1.175c-0.097-0.282-0.302-0.376-0.302-0.681   c0.001-0.305-0.774-0.329-1.128-0.305c0,0-0.094-0.141-0.258-0.199s-0.258-0.036-0.445-0.13c-0.189-0.094-0.142-0.094-0.213-0.399   c-0.07-0.305-0.07-0.023-0.352,0.023c-0.281,0.047-0.281-0.07-0.423,0c-0.14,0.07-0.352,0.141-0.554,0.235   c-0.201,0.093-0.479,0.211-0.808,0.271c-0.328,0.059-0.61,0.059-0.845-0.13c-0.235-0.188-0.258,0.188-0.47,0.322   c-0.211,0.135-0.469,0.688-0.704,0.993c-0.235,0.306-0.399,0.446-0.544,0.658c-0.146,0.211,0.051,0.54,0.45,0.938   c0.399,0.399,0.282,0.259,0.798,0.699c0.517,0.441,0.165,0.405,0.259,0.655c0.094,0.252,0.188,0.102,0.394,0.172   c0.207,0.07,0.264,0.141,0.616,0.353c0.352,0.211,0.376,0.328,0.276,0.399c-0.099,0.069-0.019,0.28,0,0.587   c0.019,0.305,0.052,0.305,0.264,0.986c0.211,0.681,0.328,0.985,0.314,1.338s0.39-0.234,0.508-0.423   c0.117-0.188,0.305-0.54,0.398-0.682c0.094-0.141,0.398-0.469,0.563-0.634c0.165-0.164,0.071-0.14,0.211-0.445   c0.142-0.306-0.022-0.164,0-0.424c0.024-0.257,0.118-0.28,0.423-0.398c0.305-0.117,0.235-0.141,0.494-0.281   c0.26-0.141,0.352-0.376,0.443-0.518c0.091-0.14,0.307-0.563,0.331-0.686S55.073,49.17,55.164,48.748z"/><path d="M57.795,45.349c0.002,0.017-0.313,0.252-0.531,0.487s-0.289,0.563-0.523,0.728c-0.234,0.164-0.281,0.586-0.493,0.705   c-0.211,0.118-0.132,0.188-0.289,0.657c-0.157,0.471-0.157,1.315-0.251,1.621c-0.094,0.305-0.211,0.821-0.4,1.104   c-0.186,0.282-0.82,0.938-0.773,1.033c0.047,0.094,0.394,0.211,0.631,0.211s0.537-0.094,0.998-0.329   c0.461-0.234,0.99-0.469,1.102-0.751c0.109-0.282,0.386-0.728,0.531-1.079c0.144-0.353,0.378-0.793,0.519-1.113   c0.141-0.32,0.306-0.649,0.563-1.025c0.258-0.375,0.258-0.797,0.377-1.208c0.117-0.412,0-0.693,0-0.881   c0-0.188-0.354-0.128-0.494-0.158C58.619,45.319,57.795,45.349,57.795,45.349z"/><path d="M52.35,66.157c0,0-0.285,0.083-0.283,0.106c0.001,0.023-0.258,0.141-0.258,0.141l-0.258,0.235   c-0.305,0.069-0.473,0.422-0.201,0.609s-0.061,0.541-0.023,0.635s0.723-0.164,0.723-0.164l0.184-0.211c0,0,0.117-0.051,0.188-0.236   c0.07-0.188,0.141-0.258,0.211-0.258s0.142,0.047,0.259,0.023s-0.142-0.445-0.259-0.563C52.514,66.357,52.35,66.157,52.35,66.157z"/><path d="M50.518,61.826c-0.188,0.046-0.728,0.188-0.728,0.188l-0.423,0.188c0,0-0.178,0.023-0.171,0.212   c0.007,0.188-0.15,0.258-0.15,0.258c-0.219,0.094-0.093,0.306-0.132,0.399c-0.04,0.095,0.07,0.282,0.132,0.375   c0.063,0.095,0.274,0.282,0.321,0.329c0.047,0.047,0.212,0.023,0.329,0s0.276-0.093,0.432-0.142   c0.155-0.046,0.32-0.069,0.414-0.069c0.094,0,0.258,0,0.352-0.023s0.759-0.235,0.759-0.235c0.298-0.281,0.298-0.442,0.228-0.644   c-0.071-0.201-0.53-1.141-0.53-1.141C51.105,61.591,50.706,61.779,50.518,61.826z"/><path d="M69.139,20.43c0,0.211,0.258,1.081,0.445,1.48c0.188,0.399,0.916,0.658,1.332,0.751s1.109-0.165,1.439-0.235   c0.328-0.07,0.539-0.188,0.539-0.563c0-0.375,0.541-1.291,0.516-1.573c0,0-2.652-0.657-3.027-0.648   C70.006,19.651,69.139,20.219,69.139,20.43z"/><path d="M51.35,64.667c0.131,0.117,0.295,0.376,0.295,0.446c0,0.069-0.234,0.282-0.07,0.329c0.165,0.046,0.869,0,0.869,0   l0.329,0.021l-0.517-1.501c-0.352,0.212-0.447,0.4-0.517,0.494C51.668,64.55,51.219,64.55,51.35,64.667z"/><path d="M84.496,15.337c-0.064,0.144,0.111,0.657,0.248,0.581C84.885,15.843,84.506,15.316,84.496,15.337z"/><path d="M89.742,5.845c-0.162,0.304-0.08,1.219-0.309,1.537c-0.074,0.102-0.496,0.427-0.66,0.658l0.221,0.308   c0.518,0.008,1.617-0.891,1.537-1.405c-0.041-0.276-0.479-0.242-0.658-0.308c0.203-0.312,1.021-0.643,1.098-1.097   C90.689,5.374,90.09,5.629,89.742,5.845z"/><path d="M26.515,61.474c0,0-0.933,0.211-0.98,0.211c-0.046,0-0.375,0-0.375,0v0.563l0.375,0.306c0,0,0.182,0.07,0.303,0   s0.426-0.118,0.426-0.118s0.128,0.024,0.251,0c0.124-0.022,0.382-0.046,0.453-0.046c0.071,0,0-0.023,0-0.142   c0-0.116,0.031-0.219,0.031-0.219L26.515,61.474z"/><path d="M74.49,18.692c0.049-0.281,0-3.061,0-3.061c-0.258,0.126-1.197,0.929-1.408,0.998s-2.301,2.252-2.16,2.369   c0.143,0.117,2.816,0.493,3.1,0.329C74.305,19.162,74.443,18.975,74.49,18.692z"/><path d="M91.992,4.863c-0.689-0.393-2.436,0.146-3.086,0.583c-0.291,0.194-0.418,1.231-0.758,1.166   c-0.434-1.37,0.174-3.671-0.176-4.195c-0.35-0.524-1.266-0.941-1.865-0.292c-0.201,0.219,0.424,1.476,0.408,1.981   c-0.018,0.513-0.432,1.196-1.107,1.224c-0.748,0.03-1.045-0.711-1.133-1.156c-0.076-0.379,0.449-1.254,0.434-1.64   c-0.02-0.574-0.76-1.148-1.65-0.525C82.5,2.399,82.611,4.63,82.555,5.154c-0.059,0.524,0.023,1.447-0.35,1.631   c-0.916-0.182-0.512-1.9-3.613-1.514c-0.42,0.949,0.098,2.644,0.475,3.267c0.322,0.535,1.389,0.294,1.738,0.811   c0.076,0.109,0.164,0.443,0.061,0.524c-6.703,5.273-24.145,14.646-33.558,15.323c-1.59,1.429-2.578,2.763-3.779,3.804   c-7.315,6.336-12.583,4.892-17.895,7.674c-2.257,1.866-4.988,7.236-6.525,9.729c-1.632,2.648-3.441,9.251-6.117,10.836   c-0.201,0.119-0.71-0.069-0.933,0c-0.389,0.122-1.125,0.586-1.34,0.934c-0.426,0.688,0.008,3.253-0.208,4.311   c-0.087,0.43-0.618,1.166-0.783,1.572c-0.526,1.303,0.13,3.588-1.689,5.36c0.679,0.454,2.235-1.208,2.505-2.098   c0.275-0.904,0.264-3.292,0.641-3.729c1.075-1.241,2.47-4.103,2.447-5.593c1.321-2.366,4.756-6.164,5.984-8.561   c-0.066,3.315,1.867,7.443,2.229,10.075c0.211,1.527,0.574,4.528,0.535,6.213c-0.002,0.089-0.014,0.174-0.01,0.254   c0.042,0.873-2.588,3.123-2.401,4.395c1.737,11.787,0.705,14.511,0.141,20.852c0.188,1.313-0.294,2.482-0.235,2.863   c0.054,0.346,2.442,2.208,3.944,0.846c0.093-0.738-0.598-1.84-0.892-3.24c0.141-0.751,0.02-1.9,0-2.396   c-0.143-3.568,0.441-6.657,0.667-8.505c0.141,3.451,0.002,7.955,0.349,10.471c0.096,0.696,0.57,2.039,0.641,2.738   c0.049,0.493-0.097,1.486-0.059,1.98c0.073,0.935,0.311,1.172,1.398,1.457c0.395,0.104,2.412,0.101,2.856-0.285   c0.376-0.325-0.506-1.104-0.652-1.579c-0.273-0.889-1.114-1.439-1.272-3.613c-0.584-3.549-1.345-10.649-1.041-14.233   c0.067-0.796,0.428-2.401,0.575-3.186c0.336-1.801,0.361-4.541,0.68-6.346c1.111-2.688,7.304-12.552,7.613-12.446   c3.133,1.069,5.486,2.105,10.408,0.557c0.399,1.875,2.178,5.123,3.757,8.337c0.54,1.099-1.783,6.518-1.783,8.453   c0,3.64,1.034,11.035-1.502,15.262c-0.258,0.43,0.223,1.066,0.223,1.497c0.155,1.068-0.634,3.034-0.646,4.326   c-0.006,0.658,3.105,1.502,4.185,0.845c0.222-0.688-0.518-1.774-0.656-2.259c-0.128-0.45-0.136-1.455-0.055-2.249   c0.457-0.85,0.348-1.701,0.449-2.756c-0.308-3.255,0.955-10.347,2.055-13.149c0.182-1.939,0.309-3.226,0.323-3.101   c0.48,3.946,0.396,11.955-0.058,15.905c-0.104,0.905-0.797,2.642-0.816,3.554c-0.009,0.399,0.417,1.629,0.428,2.029   c0.02,0.779-0.956,3.447-0.544,3.855c1.403,1.389,4.428,1.225,4.519,0.979c0.267-0.719-0.988-2.268-1.144-2.819   c-0.218-0.774-0.419-1.496-0.345-2.296c0.063-0.69,0.742-1.989,0.699-2.681c-0.023-0.354-0.467-1.165-0.467-1.34   c0-0.174,0.137-9.923,1.107-13.05c0.148-0.48,0.84-1.27,0.989-1.748c0.185-0.586,0.04-1.909-0.011-2.521   c-0.18-2.163-1.682-4.479-2.402-6.526c0.06-1.897,3.915-8.956,3.462-12.044c1.325-1.432,2.946-4.232,3.263-5.884   c0.152-0.792-0.191-2.427-0.408-3.205c-0.533-1.918-0.596-3.983,0.469-5.612c1.189-1.627,15.34-11.99,20.797-18.216   c0.363-0.414,1.875-3.062,2.227-3.324c0.029,1.157,0.979,2.492,2.436,2.45c0.631-0.018,1.568-0.789,1.572-1.981   c0.002-0.393-0.055-1.183,0-1.573c0.102-0.735,0.609-2.141,0.816-2.855c0.336-1.172,1.197-1.231,1.455-3.321   C90.672,8.179,92.123,7.969,91.992,4.863z M89.18,9.292c-0.014,0.447-0.074,0.781-0.16,1.052c-0.176-0.077-0.498-0.073-0.738,0.071   c-0.104,0.063-0.273,0.111-0.313,0.151c0.031,0.051,0.084,0.142,0.092,0.252c0.018,0.265,0.139,0.404,0.283,0.487   c0.064,0,0.121-0.007,0.178-0.02c-0.078,0.118-0.158,0.239-0.236,0.375c0,0-0.727,1.499-0.861,1.976   c-0.09,0.313-0.553,1.639-0.559,2.288c0.088,0.703,0.336,2.469-1.492,2.65c-1.615,0-1.906-1.947-1.9-2.851   c-0.336,0.279-2.088,2.755-2.729,3.896c-0.832,0.973-4.074,3.801-5.008,4.676c-0.625,0.583-2.25,1.939-4.229,3.567   c0.961-0.899,2.105-2.079,2.092-2.222c-0.025-0.235-0.916-0.822-1.08-0.963c-0.164-0.14,0.164-1.033,0-1.197h-0.164   c0,0-2.113-0.07-2.35,0c-0.234,0.071-0.586,1.197-0.727,1.41c-0.137,0.211,0.234,0.586,0,0.845   c-0.232,0.258-0.658,0.774-0.588,0.962c0.07,0.188,0.799,1.972,0.811,2.205s0.434,0.025,0.742,0   c-3.963,3.251-8.713,7.11-9.873,8.205c-2.223,2.099-1.439,4.571-1.189,6.402c0.059,0.423,0.555,1.827,0.506,2.252   c-0.178,1.558-1.23,4.073-2.236,5.308c-0.305,0.371-0.966,0.868-1.415,1.033c-0.593,0.22-1.966,0.069-2.489,0.423   c-0.764,0.518-1.724,2.247-1.926,3.146c-1.602,7.143,4.492,13.46,3.945,18.033c-0.067,0.558-0.92,1.433-1.08,1.972   c-0.959,3.252-1.436,10.265-0.986,13.525c0.048,0.345-0.826,0.744-1.174,0.751c-0.163,0.004-1.063-0.485-1.027-0.644   c0.918-4.175,1.379-13.408,0.463-17.858c-0.622-3.03-3.716-8.501-4.883-11.364c-0.333-0.816-0.98-2.455-1.268-3.287   c-0.537-1.556-2.173-4.193-2.328-6.009c-0.173-2.04-0.222-5.873,0.056-8.154c-1.837,2.143-0.905,7.519-0.891,9.519   c-1.991,1.535-6.415,2.237-8.343,0.512c-2.344-2.099-3.458-4.659-4.027-6.434c-0.329-1.022-0.763-2.634-1.184-4.208   c-0.219,1.212,1.281,7.78,1.336,8.961c0.08,1.744-0.586,7.598-1.526,9.429c-0.939,1.831-2.667,9.703-2.573,13.389   c-0.225,1.014-1.89,5.933,0.146,17.343c0.496,2.646-1.397,1.698-1.837-0.028c-0.658-2.586-0.06-8.237-0.417-10.882   c-0.202-1.49-1.323-4.267-1.659-5.733c-0.264-1.151-1.156-3.423-1.08-4.602c0.063-0.965,1.261-2.655,1.362-3.616   c0.438-4.181-2.218-12.432-2.536-16.625c-0.094-1.237-0.367-3.575,0.24-4.658c0.918-1.642,2.65-4.681,4.176-6.699   c0.509-0.672,0.776-0.848,1.362-1.292c0.848-0.508,1.285-0.661,1.924-0.844c8.467-2.425,11.841-3,16.092-7.075   c0.831-0.635,2.778-1.492,3.74-2.296c9.027-1.083,30.923-12.567,33.539-17.076c-0.063-1.202-1.467-1.189-1.721-1.373   c-0.709-0.513-0.809-2.171-0.668-2.838c2.561-0.39,2.479,1.475,3.369,1.502c0.096,0.007,0.209,0,0.334-0.016   c-0.297,0.504-0.59,0.794-0.563,0.87c0.068,0.211,1.121,1.596,1.238,1.963c0.119,0.368,0.826,0.349,1.178,0.709   c0.354,0.359,0.002,3.714,1.059,3.714c0.973,0,0.707-3.076,0.879-3.454c0.174-0.379,0.623-0.538,0.881-0.805   c0.26-0.267,1.248-1.583,1.223-1.753c-0.033-0.213-0.234-0.873-0.348-1.235c0.068,0.006,0.131,0.009,0.188,0.006   c0.445-0.016,0.541-1.205,0.918-1.447c0.537-0.343,1.752-0.756,2.588-0.538C91.598,8.647,89.217,8.153,89.18,9.292z"/><path d="M81.512,12.627c-0.578,0.787-1.592,2.094-1.898,3.235c0.289,0.122,0.52,0.102,0.629,0.228   c0.215,0.243,0.285,0.829,0.498,1.193c0.146,0.093,0.535,0.034,0.695-0.032c0.52-0.439,1.383-1.047,1.777-1.593   c-0.15-0.691-0.416-2.27-0.766-2.881C82.273,12.618,81.727,12.526,81.512,12.627z"/><path d="M74.75,19.843c-0.307,0.141-1.129,2.7-1.012,2.935c0.119,0.235,0.801,0.47,0.916,0.61c0.117,0.142-0.164,0.353-0.186,0.517   c-0.025,0.164,0.352,0.587,0.65,0.587c0.297,0,2.73-2.371,2.871-2.559c0,0-2.02-2.02-2.131-2.207S75.055,19.702,74.75,19.843z"/><path d="M80.432,18.599c-0.258-0.07-0.658-0.141-0.68-0.422c-0.025-0.282-0.424-1.033-0.729-1.13c0,0-0.658,0.966-0.869,0.989   c-0.211,0.024-1.057,0.869-1.057,1.198s1.432,1.95,1.785,1.973c0.352,0.023,1.83-1.902,2.041-2.16   C81.137,18.787,80.689,18.669,80.432,18.599z"/><path d="M86.15,15.801c0.141,0,0.322-0.406,0.273-0.53C86.324,15.269,86.119,15.685,86.15,15.801z"/><path d="M28.211,48.7c-0.07,0.048-0.54,0.499-0.61,0.519c-0.07,0.021-0.657,0.516-0.657,0.516l-0.376,0.744   c0,0,0.094,1.109,0,1.298c-0.094,0.188-0.446,0.893-0.446,0.893s0.493,0.117,0.61,0.164c0.118,0.047,0.745,0.211,0.745,0.211   l0.382,0.307c0,0,0.235,0.257,0.494,0.304c0.258,0.048,0.869,0,0.869,0s0.258,0.113,0.329,0.021   c0.07-0.092,0.235,0.214,0.235,0.214s0.023-0.916,0-1.127c-0.024-0.212-0.05-0.705,0.01-0.774c0.06-0.071-0.013-0.376,0-0.517   c0.013-0.142,0.035-0.517,0.024-0.611c-0.011-0.094,0.041-0.06,0.003-0.382c-0.038-0.322-0.147-0.38-0.163-0.609   s0.062-0.506,0-0.65c-0.063-0.143,0.133-0.228,0-0.337s-0.039-0.354-0.157-0.361c-0.117-0.008-0.67-0.407-0.67-0.407   S28.282,48.654,28.211,48.7z"/><path d="M29.104,54.329c-0.142-0.04-0.517-0.109-0.705-0.099c-0.188,0.011-0.828-0.528-0.828-0.528s-0.158-0.118-0.252-0.212   c-0.094-0.094-0.446-0.14-0.446-0.14l-0.634-0.197c-0.165,0.032-0.541,0.102-0.423,0.337c0.117,0.235,0.521,0.646,0.566,0.839   c0.044,0.194,0.138,0.711,0.138,0.805c0,0.095,0.211,0.574,0.211,0.569c0-0.006,0.178,0.124,0.347,0.223   c0.169,0.101,0.639,0.241,0.804,0.312c0.164,0.07,0.657,0.212,0.657,0.212l0.493-0.282c0,0,0.305-0.446,0.305-0.634   c0-0.188,0.023-0.774,0-0.869C29.315,54.57,29.245,54.371,29.104,54.329z"/><path d="M52.42,68.188c-0.047,0.095,0.07,0.259,0.141,0.282c0.07,0.024,0.635,0.188,0.729,0.188s0.587,0,0.587,0   c0.094-0.212-0.329-0.894-0.329-0.894s-0.305,0.188-0.446,0.235C52.96,68.048,52.467,68.095,52.42,68.188z"/><path d="M41.853,51.196c-0.187-0.101,0.4-0.054-0.563-0.147c-0.962-0.094-1.053-0.071-1.23-0.142   c-0.178-0.07-0.178,0.142-0.507-0.117c-0.329-0.259-0.611-0.461-0.681-0.524c-0.071-0.063-0.188-0.18-0.329-0.228   c-0.141-0.047-0.226-0.093-0.406-0.28c-0.18-0.188-0.214-0.26-0.456-0.376c-0.241-0.118-0.359-0.142-0.359-0.142h-0.258   c0,0-0.188-0.047-0.258,0c-0.071,0.047-0.274,0-0.274,0c-0.36,0.188-0.5,0.601-0.923,0.629c-0.423,0.029-0.775,0.146-0.869,0.24   c-0.094,0.093,0,0,0,0.328c0,0.329,0.067,0.329,0.198,0.869c0.13,0.54,0.014,0.47,0.154,0.682c0.141,0.211,0.282,0.305,0.353,0.328   c0.06,0.02,0.535,0.272,0.683,0.352c-0.044-0.027-0.05-0.047,0.405,0.118c0.65,0.235,0.509,0.423,0.861,0.352   c0.352-0.07,0.549-0.14,0.744-0.328s0.318-0.235,0.597-0.259c0.279-0.023-0.449-0.047,0.279-0.023s0.919,0.023,1.047,0.023   c0.127,0-0.295,0.048,0.127,0c0.423-0.047,0.658-0.117,0.658-0.117s0.188-0.023,0.352-0.165c0.165-0.14,0.376-0.305,0.422-0.375   C41.666,51.824,42.04,51.298,41.853,51.196z"/><path d="M35.678,48.724c0.165-0.094,0.658,1.479,0.165-0.094c-0.493-1.573-0.61-1.534-0.61-1.718c0-0.185,0.587,0.389-0.117-0.415   c-0.54-0.615-0.707-0.758-0.787-0.802c0.124,0.047,0.338,0.126-0.27-0.118c-0.821-0.329-0.751-0.389-0.892-0.441   c-0.141-0.052-0.264-0.17-0.308-0.311c-0.044-0.141-0.185-0.493-0.185-0.493s-0.094-0.392-0.188-0.489s-0.27-0.408-0.27-0.408   s0.034-0.48,0-0.534c-0.105-0.166-0.481-1.246-0.481-1.246l-0.07-0.328c-0.282,0.211-0.282,0.234-0.422,0.353   c-0.142,0.116-0.423,0.141-0.564,0.258c-0.141,0.117-0.235,0.328-0.375,0.328c-0.141,0-0.376,0.093-0.564,0.117   c-0.188,0.023,0.023,0.211,0,0.705c-0.023,0.493,0.165,0.916,0.235,1.126c0.07,0.211,0,0.587,0.094,0.798   c0.094,0.211,0,0.165,0.282,0.587s0.062,0.235,0.313,0.728c0.25,0.493,0.133,0.203,0.297,0.583   c0.165,0.379-0.211-0.066,0.305,0.732c0.517,0.798,0.658,0.868,0.728,1.127c0.07,0.258,0.023,0.328,0.118,0.634   c0.094,0.305,0.234,0.586,0.282,0.681c0.047,0.094,0.164,0.281,0.234,0.376c0.071,0.093,0.822,1.056,1.01,1.15   c0.188,0.094,0.376,0,0.376,0s0.188,0.234,0.117-0.259c-0.071-0.493-0.305-0.634-0.305-0.963c0-0.328-0.023-0.469,0-0.61   c0.023-0.141,0-0.211,0.188-0.234c0.188-0.023,0.362-0.188,0.362-0.188s0.094-0.065,0.324-0.139   c0.229-0.072,0.348-0.096,0.559-0.214C35.467,48.888,35.514,48.818,35.678,48.724z"/><path d="M28.173,58.632c-0.126,0.095-0.267,0.329-0.149,0.399c0.118,0.071-0.019,0.869-0.045,0.939   c-0.025,0.07,0.427,0.234,0.427,0.234l0.229-0.399c0,0,0.188-0.362,0.118-0.438c-0.07-0.077,0.07-0.313,0-0.406   s0.081-0.704,0.081-0.704C28.752,58.279,28.298,58.539,28.173,58.632z"/><path d="M27.249,58.563c0,0-0.646-0.471-0.734-0.54c-0.087-0.071-0.393-0.282-0.393-0.282s-0.42,0.141-0.328,0.282   c0.093,0.141,0.187,0.422,0.328,0.517c0.141,0.093,0.61,0.376,0.61,0.376s0.342,0.164,0.347,0.188   c0.005,0.023-0.011-0.048-0.005-0.023C27.08,59.103,27.249,58.563,27.249,58.563z"/><path d="M28.752,57.251c0,0-0.751,0.302-0.916,0.371c-0.164,0.071-0.399,0.304-0.094,0.293c0.305-0.011,0.493-0.058,0.634-0.104   C28.517,57.764,28.752,57.251,28.752,57.251z"/><path d="M29.785,41.445c0,0,0.54-0.375,0.656-0.446c0.115-0.071,0.776-0.235,0.776-0.235s0.141-0.587,0.235-0.803   c0.094-0.215,0.094-1.122,0.094-1.311c0,0,0,0-0.305-0.071c-0.306-0.07-0.493-0.117-0.564-0.117s-0.353-0.211-0.353-0.211   l-0.371-0.258l-0.193-0.094c0,0-0.493,0.023-0.704,0.094c-0.211,0.071-0.563,0.328-0.563,0.328s-0.047,0.399-0.024,0.576   c0.024,0.177,0,0.482,0.024,0.787c0.023,0.305-0.024,0.164-0.094,0.775c-0.071,0.611-0.024,0.211,0,0.329   c0.023,0.118,0.234-0.023,0.422,0.024c0.188,0.046,0.164,0.258,0.188,0.398c0.023,0.142,0.282,0.211,0.446,0.399   C29.621,41.796,29.785,41.445,29.785,41.445z"/><path d="M47.63,58.233c0.47-0.423,0.705-0.563,0.751-0.634c0.141-0.211,0.165-0.134,0.165-0.349s1.127,0.63,0-0.356   c-1.127-0.985-1.198-0.985-1.268-1.104c-0.07-0.117,0.165,0.048-0.07-0.117c-0.235-0.164-0.47-0.188-0.47-0.306   c0-0.116-0.211-0.234-0.211-0.234c-0.117,0.282-0.226,0.916-0.277,1.127c-0.052,0.212-0.216,0.541-0.216,0.541   c0.07,0.258,0.493,0.563,0.493,0.962c0,0.399,0.235,0.681,0.329,0.963c0.094,0.281-0.047,0.846,0.117,0.563   c0.165-0.282,0.353-0.658,0.399-0.728C47.418,58.491,47.16,58.655,47.63,58.233z"/><path d="M51.316,60.323c-0.094-0.094-0.141-0.282-0.188-0.493c-0.047-0.212-0.047-0.648-0.07-0.677   c-0.023-0.027-0.071-0.38-0.071-0.38s-0.761,0.821-0.968,0.915c-0.206,0.095-0.605,0.493-0.652,0.588   c-0.046,0.093-0.108,0.211-0.171,0.47c-0.063,0.258-0.017,0.61,0.171,0.54c0.188-0.071,0.389-0.142,0.618-0.212   c0.228-0.07,0.651-0.211,0.651-0.211s0.235,0,0.376-0.023c0.141-0.023,0.352-0.023,0.305-0.118   C51.27,60.629,51.41,60.417,51.316,60.323z"/><path d="M49.367,59.367c0.282-0.171,0.437-0.265,0.652-0.452c0.216-0.188,0.123-0.142,0.216-0.307   c0.094-0.164,0.094-0.257,0.118-0.329c0.07-0.211-0.118-0.328-0.118-0.328c-0.046-0.021-0.123-0.035-0.216-0.046   c-0.328-0.035-0.857-0.009-0.973,0.046c-0.148,0.071-0.336,0.095-0.431,0.259c-0.094,0.164-0.422,0.329-0.422,0.329l-0.123,0.211   c0,0-0.183,0.069-0.37,0.258c-0.188,0.188-0.204,0.376-0.161,0.446s0.09-0.07,0.395,0.188c0.306,0.259,0.657,0.752,0.728,0.775   C48.734,60.441,49.085,59.537,49.367,59.367z"/><path d="M50.729,65.019c-0.023-0.116-0.141-0.211-0.188-0.306c-0.047-0.096-0.164-0.069-0.282-0.14   c-0.118-0.071-0.775,0.398-0.775,0.398s-0.024,0.188,0,0.282c0.024,0.094,0.258,0.188,0.399,0.329   c0.141,0.141,0.094,0.116,0.135,0.375c0.042,0.259,0.099,0.188,0.099,0.188s0.117,0.023,0.251,0   c0.133-0.023,0.477-0.282,0.477-0.282s0.118-0.188,0-0.401C50.847,65.463,50.753,65.136,50.729,65.019z"/><path d="M41.853,47.855c-0.21-0.118-0.28-0.07-0.445-0.141c-0.165-0.07-0.352-0.211-0.446-0.211c-0.094,0-0.234-0.093-0.446-0.234   c-0.211-0.141-0.456-0.258-0.456-0.258c-0.037-0.117-0.319-0.235-0.319-0.235l-0.423,0.137c-0.14,0.074-0.164,0.356-0.398,0.544   c-0.235,0.188-0.352,0.586-0.493,0.797c-0.141,0.211-0.329,0.376-0.282,0.518c0.047,0.141,0.211,0.375,0.282,0.422   s1.385,0.601,1.479,0.676c0.094,0.076,0.405,0.217,0.52,0.264s0.443,0.142,0.701,0.117c0.259-0.023,0.399,0.004,0.399,0.004   s0.232,0.027,0.328,0s-0.025-0.332,0-0.592c0.025-0.257,0.142-0.785,0.119-1.073C41.948,48.301,42.063,47.972,41.853,47.855z"/><path d="M50.307,51.894c-0.047-0.117-0.658,0-0.658,0c-0.234,0.47-0.375,0.916-0.469,1.057c-0.094,0.141-0.306,0.517-0.564,0.634   c-0.258,0.118-0.268,0.188-0.545,0.423c-0.276,0.234-0.324,0.314-0.582,0.463c-0.259,0.147-0.54,0.147-0.353,0.266   c0.188,0.116,0.54,0.353,0.658,0.445c0.117,0.095,0.385,0.259,0.568,0.399c0.184,0.141,0.356,0.305,0.552,0.493   c0.195,0.188,0.477,0.376,0.453,0.492c-0.023,0.118-0.939,0.165,0.282,0.471c1.222,0.305,1.386,0.329,1.386,0.329   c0.164-0.424,0.422,0.727,0.188-0.563c-0.235-1.292-0.258-1.573-0.211-1.737c0.047-0.165,0.281-0.391,0.047-0.595   c-0.235-0.205-0.235-0.205-0.235-0.205c-0.094-0.117-0.258-0.188-0.117-0.258c0.141-0.07,0.165-0.258,0.117-0.399   c-0.047-0.141-0.258-0.445-0.258-0.517c0-0.069-0.211-0.353-0.235-0.445c-0.023-0.095-0.07-0.259-0.023-0.329   C50.354,52.246,50.354,52.012,50.307,51.894z"/><path d="M46.385,54.313c0.14,0.188,1.057-1.198,1.151-1.339s0.141-0.211,0.235-0.375c0.094-0.165,0.3-0.399,0.3-0.399   s0.381-0.282,0.569-0.471c0.188-0.188,0.352-0.28,0.234-1.056c-0.117-0.774-0.14-0.094-0.315-0.282   c-0.175-0.188-0.295-0.141-0.439-0.188c-0.146-0.046-0.137-0.211-0.254-0.333c-0.118-0.122-0.188-0.229-0.736-0.816   c-0.237-0.255-0.298-0.306-0.31-0.31c-0.007-0.015-0.028-0.05-0.082-0.127c-0.235-0.344,0.211-0.291,0.392-0.408   c0.181-0.118,0.101-0.165,0.219-0.283c0.117-0.117,0.117-0.164,0.188-0.398c0.07-0.235,0.235-0.305,0.352-0.47   c0.117-0.164,0.211-0.258,0.231-0.375c0.019-0.118,0.286-0.283,0.403-0.682c0.118-0.399-0.07-0.281-0.258-0.651   c-0.188-0.369-0.281-0.312-0.517-0.546c-0.234-0.235-0.282-0.376-0.517-0.633c-0.234-0.259-0.563-0.353-0.751-0.751   c-0.188-0.4-0.47-0.611-0.779-0.823c0,0-0.254,0.376-0.442,0.541C45.07,43.3,45.07,43.418,45,43.582   c-0.07,0.164-0.07,0.328-0.117,0.432c-0.047,0.105-0.023,0.507-0.094,0.813c-0.07,0.306-0.118,0.422-0.258,0.681   c-0.141,0.258-0.235,0.376-0.423,0.728c-0.188,0.353-0.211,0.447-0.329,0.563c-0.117,0.118-0.259,0.658-0.165,0.798   c0.094,0.141-0.023,0.611,0,0.866c0.024,0.256,0.024,0.684,0.094,1.13c0.071,0.445,0.141,0.094,0.258,0.276   c0.118,0.184,0.282,0.169,0.541,0.405c0.258,0.234,0.258,0.305,0.399,0.633c0.141,0.329,0.211,0.377,0.309,0.775   s0.113,0.563,0.02,0.892c-0.094,0.329,0.165,0.681,0.466,1.269C46.002,54.43,46.245,54.125,46.385,54.313z"/><path d="M43.474,45.436c0,0,0.258-0.446,0.282-0.54c0.023-0.093,0.07-0.281,0.117-0.422c0.047-0.141,0.188-0.376,0.235-0.563   c0.047-0.188,0.188-0.328,0.306-0.474c0.117-0.144,0.211-0.394,0.54-0.7c0.329-0.305,0.094-0.305,0-0.54   c-0.056-0.14-0.188-0.093-0.375-0.257c-0.188-0.164-0.188-0.094-0.376-0.212c-0.188-0.118-0.235-0.046-0.551-0.118   c-0.318-0.07-0.294-0.164-0.481-0.469c-0.188-0.306-0.165-0.212-0.494-0.399c-0.328-0.188-0.446-0.235-0.54-0.306   c-0.094-0.07-0.423-0.422-0.54-0.469c-0.118-0.047-0.094,0.353-0.241,0.422c-0.147,0.071-0.252,0.423-0.346,0.587   c-0.094,0.165-0.963,1.479-1.268,1.619c-0.305,0.142-0.493,0.541-0.611,0.706c-0.117,0.164-0.07,0.282,0,0.469   c0.071,0.188,0.258,0.306,0.306,0.656c0.047,0.35,0.258,0.588,0.305,1.034c0.047,0.447,0.352,0.681,0.493,0.845   c0.141,0.165,0.845,0.353,1.056,0.541c0.211,0.188,0.282-0.071,0.399-0.188c0.117-0.118,0.094-0.845,0.163-1.222   c0.069-0.375,0.119-0.986,0.166-1.243c0.046-0.259,0.305-0.893,0.399-1.127c0.094-0.235,0.563-0.705,0.608-0.798   c0.044-0.094,0.559-0.328,0.559-0.328s0.148,0.375,0,0.563c-0.148,0.188,0.101,1.197,0,1.409   C43.483,44.121,43.568,45.108,43.474,45.436z"/><path d="M36.126,52.668c0.019,0.011,0.045,0.024,0.045,0.024S36.154,52.683,36.126,52.668z"/></g><text x="0" y="115" fill="#000000" font-size="5px" font-weight="bold" font-family="'Helvetica Neue', Helvetica, Arial-Unicode, Arial, Sans-serif">Created by Christy Presler</text><text x="0" y="120" fill="#000000" font-size="5px" font-weight="bold" font-family="'Helvetica Neue', Helvetica, Arial-Unicode, Arial, Sans-serif">from the Noun Project</text></svg>