<svg xmlns="http://www.w3.org/2000/svg" xmlns:xlink="http://www.w3.org/1999/xlink" xml:space="preserve" version="1.1" style="shape-rendering:geometricPrecision;text-rendering:geometricPrecision;image-rendering:optimizeQuality;" viewBox="0 0 688 988.75" x="0px" y="0px" fill-rule="evenodd" clip-rule="evenodd"><defs><style type="text/css">
   
    .fil0 {fill:black}
   
  </style></defs><g><path class="fil0" d="M0 791c3,-222 6,-444 6,-665l38 0 0 21 50 0 0 -21 13 0 0 -79 -32 0 0 -13 32 0 0 -34 12 0 0 34 32 0 0 13 -32 0 0 79 13 0 0 21 48 0 0 -21 37 0c0,104 0,209 0,313l346 0 125 158 0 194 -275 0 0 -90c0,-54 -31,-97 -69,-97 -38,0 -68,43 -68,97l0 90 -276 0zm161 -153l68 0 0 117 -68 0 0 -117zm305 0l68 0 0 117 -68 0 0 -117zm106 0l68 0 0 117 -68 0 0 -117zm-459 -429c21,0 38,25 38,55l0 58 -76 0 0 -58c0,-30 18,-55 38,-55z"/></g><text x="0" y="806" fill="#000000" font-size="5px" font-weight="bold" font-family="'Helvetica Neue', Helvetica, Arial-Unicode, Arial, Sans-serif">Created by R HIMMAH</text><text x="0" y="811" fill="#000000" font-size="5px" font-weight="bold" font-family="'Helvetica Neue', Helvetica, Arial-Unicode, Arial, Sans-serif">from the Noun Project</text></svg>