<svg xmlns="http://www.w3.org/2000/svg" xmlns:xlink="http://www.w3.org/1999/xlink" version="1.1" x="0px" y="0px" viewBox="0 0 100 125" enable-background="new 0 0 100 100" xml:space="preserve"><g><path d="M90.284,42.74c-0.005-0.015-0.005-0.031-0.011-0.046c-0.012-0.03-0.035-0.052-0.052-0.079   c-0.013-0.022-0.017-0.046-0.033-0.067c-0.008-0.01-0.02-0.015-0.028-0.024c-0.01-0.011-0.015-0.026-0.025-0.036v0L74.65,27.092   l-0.004-0.003c-0.02-0.02-0.047-0.03-0.069-0.047c-0.035-0.026-0.068-0.051-0.107-0.069c-0.034-0.016-0.069-0.025-0.105-0.035   c-0.043-0.012-0.084-0.022-0.128-0.025c-0.013-0.001-0.025-0.007-0.039-0.007c-0.013,0-0.025,0.007-0.038,0.008   c-0.012,0.001-0.024,0.006-0.036,0.007c-0.042,0.005-0.083,0.011-0.123,0.024c-0.015,0.005-0.03,0.005-0.045,0.011l-0.004,0.001   L62.944,31.66v-1.958l0.378-0.293c0.011-0.008,0.016-0.021,0.025-0.03c0.034-0.03,0.06-0.064,0.086-0.101   c0.023-0.031,0.047-0.06,0.064-0.095c0.017-0.035,0.026-0.073,0.037-0.112c0.012-0.043,0.023-0.084,0.026-0.128   c0.001-0.013,0.008-0.025,0.008-0.038v-0.624c0-0.027-0.012-0.049-0.015-0.075c-0.005-0.044-0.012-0.087-0.026-0.13   c-0.014-0.041-0.034-0.076-0.056-0.113c-0.014-0.024-0.019-0.05-0.036-0.072l-0.001-0.001L51.241,12.133V7.165l1.48,0.425   c0.058,0.017,0.118,0.025,0.177,0.025c0.129,0,0.241-0.048,0.341-0.113c0.013-0.009,0.029-0.009,0.042-0.018   c0,0,0.004-0.001,0.006-0.002l0.56-0.433c0.011-0.008,0.015-0.021,0.025-0.029c0.035-0.03,0.061-0.065,0.088-0.102   c0.023-0.031,0.047-0.06,0.064-0.094c0.017-0.035,0.026-0.073,0.037-0.112c0.012-0.043,0.023-0.084,0.026-0.128   c0.001-0.014,0.008-0.025,0.008-0.039V5.742c0-0.014-0.007-0.025-0.008-0.039c-0.002-0.026-0.004-0.051-0.009-0.076   c-0.005-0.029-0.013-0.055-0.023-0.083c-0.009-0.027-0.018-0.054-0.03-0.08c-0.012-0.024-0.025-0.044-0.04-0.067   c-0.008-0.012-0.009-0.026-0.018-0.038c-0.009-0.012-0.022-0.017-0.031-0.028c-0.018-0.021-0.035-0.041-0.056-0.059   c-0.02-0.018-0.042-0.033-0.065-0.048c-0.025-0.017-0.049-0.033-0.076-0.046c-0.023-0.012-0.046-0.021-0.071-0.03   c-0.012-0.004-0.022-0.014-0.035-0.018l-2.391-0.683V2.292c0-0.028-0.012-0.052-0.016-0.079c-0.002-0.015,0.007-0.029,0.003-0.044   c-0.003-0.016-0.016-0.026-0.021-0.041c-0.024-0.088-0.063-0.167-0.119-0.236c-0.01-0.012-0.014-0.025-0.025-0.037   c-0.07-0.074-0.159-0.126-0.258-0.16c-0.01-0.003-0.016-0.013-0.025-0.016L50.03,1.463c-0.208-0.06-0.423-0.013-0.583,0.121   c0,0-0.318,0.267-0.449,0.359c-0.019,0.01-0.03,0.03-0.048,0.042c-0.053,0.035-0.1,0.074-0.141,0.123   c-0.021,0.025-0.037,0.051-0.053,0.079c-0.032,0.054-0.053,0.111-0.069,0.173c-0.005,0.021-0.02,0.037-0.023,0.059   c-0.002,0.016,0.003,0.031,0.002,0.047c-0.001,0.014-0.008,0.026-0.008,0.041v1.208l-1.482-0.42   c-0.017-0.005-0.033-0.001-0.05-0.004c-0.043-0.008-0.084-0.011-0.127-0.01c-0.044,0-0.085,0.001-0.127,0.01   c-0.034,0.007-0.065,0.019-0.098,0.032c-0.046,0.018-0.089,0.038-0.13,0.066c-0.012,0.008-0.027,0.01-0.039,0.02l-0.547,0.433   c-0.01,0.008-0.014,0.019-0.023,0.028c-0.017,0.016-0.034,0.03-0.049,0.048c-0.022,0.024-0.039,0.05-0.057,0.078   c-0.016,0.024-0.031,0.045-0.043,0.071c-0.011,0.022-0.018,0.044-0.026,0.067c-0.005,0.013-0.015,0.023-0.019,0.036   c-0.005,0.017-0.001,0.034-0.004,0.051c-0.006,0.029-0.011,0.057-0.013,0.086c-0.001,0.012-0.007,0.023-0.007,0.036v0.803   c0,0.013,0.007,0.025,0.008,0.038c0.002,0.044,0.014,0.085,0.025,0.127c0.011,0.039,0.019,0.077,0.036,0.113   c0.017,0.035,0.042,0.065,0.065,0.097c0.025,0.034,0.049,0.067,0.081,0.095c0.028,0.025,0.06,0.043,0.093,0.062   c0.039,0.024,0.076,0.047,0.12,0.062c0.012,0.004,0.021,0.013,0.033,0.017l2.379,0.682v5.954l-12.109,20.16   c-0.008,0.013-0.008,0.028-0.015,0.041c-0.013,0.025-0.024,0.05-0.034,0.077c-0.005,0.013-0.015,0.023-0.019,0.036   c-0.004,0.015,0,0.029-0.003,0.044c-0.006,0.03-0.01,0.058-0.012,0.088c-0.001,0.015-0.008,0.027-0.008,0.042v0.611   c0,0.013,0.007,0.024,0.007,0.037c0.002,0.044,0.014,0.085,0.025,0.128c0.011,0.038,0.018,0.076,0.035,0.111   c0.018,0.037,0.043,0.067,0.067,0.1c0.025,0.033,0.047,0.065,0.077,0.093c0.029,0.026,0.063,0.044,0.097,0.065   c0.037,0.023,0.073,0.046,0.115,0.061c0.012,0.004,0.02,0.014,0.033,0.017l0.153,0.043v7.672l-16.928-4.8   c-0.039-0.012-0.077-0.006-0.116-0.01c-0.037-0.003-0.074-0.012-0.11-0.009c-0.057,0.004-0.108,0.021-0.159,0.04   c-0.024,0.008-0.049,0.012-0.071,0.023c-0.049,0.025-0.09,0.06-0.131,0.096c-0.021,0.018-0.044,0.033-0.063,0.054   c-0.031,0.036-0.052,0.08-0.075,0.124c-0.015,0.027-0.037,0.049-0.048,0.078l-5.781,16.033c-0.002,0.007-0.001,0.014-0.003,0.021   c-0.002,0.008-0.008,0.013-0.011,0.021c-0.009,0.03-0.003,0.06-0.007,0.091c-0.004,0.028-0.017,0.053-0.017,0.083v0.624   c0,0.014,0.007,0.026,0.008,0.04c0.003,0.045,0.014,0.087,0.026,0.13c0.011,0.038,0.02,0.075,0.037,0.11   c0.018,0.036,0.042,0.066,0.066,0.098c0.025,0.034,0.049,0.066,0.081,0.094c0.028,0.025,0.06,0.043,0.093,0.063   c0.039,0.024,0.077,0.046,0.121,0.061c0.013,0.004,0.022,0.014,0.036,0.018l0.041,0.012v13.094l-4.134,3.198   c-0.011,0.008-0.015,0.021-0.025,0.029c-0.012,0.011-0.028,0.017-0.039,0.029c-0.021,0.022-0.033,0.05-0.051,0.075   c-0.022,0.03-0.045,0.059-0.062,0.092c-0.007,0.013-0.016,0.024-0.022,0.037c-0.011,0.027-0.011,0.056-0.018,0.084   c-0.01,0.04-0.02,0.077-0.023,0.118c0,0.004-0.002,0.008-0.002,0.013c0,0.009-0.005,0.017-0.005,0.027v0.001v0.002v0.621v0   c0,0.038,0.016,0.075,0.023,0.113c0.03,0.16,0.114,0.295,0.24,0.389c0.022,0.016,0.041,0.03,0.064,0.043   c0.093,0.053,0.195,0.092,0.31,0.092c0.054,0,0.103-0.018,0.153-0.031v16.662c0,0.013,0.007,0.024,0.007,0.037   c0.003,0.046,0.014,0.089,0.027,0.133c0.011,0.037,0.019,0.073,0.035,0.107c0.018,0.038,0.044,0.069,0.069,0.102   c0.024,0.032,0.046,0.064,0.076,0.09c0.029,0.026,0.063,0.045,0.097,0.065c0.038,0.023,0.074,0.045,0.116,0.06   c0.013,0.004,0.022,0.014,0.035,0.018l29.403,8.328c0.058,0.017,0.117,0.024,0.174,0.024c0.129,0,0.242-0.048,0.342-0.113   c0.013-0.009,0.03-0.009,0.043-0.018c0,0,0.004-0.001,0.006-0.002l18.605-14.422l14.959,4.23c0.057,0.017,0.116,0.024,0.173,0.024   c0.129,0,0.242-0.048,0.342-0.113c0.013-0.009,0.03-0.009,0.043-0.018l0.006-0.002l10.685-8.303   c0.007-0.006,0.011-0.015,0.018-0.021c0.04-0.034,0.071-0.074,0.101-0.117c0.02-0.028,0.041-0.053,0.056-0.084   c0.018-0.037,0.027-0.076,0.038-0.117c0.011-0.042,0.022-0.082,0.025-0.125c0.001-0.014,0.008-0.025,0.008-0.039V63.474   l3.343-2.585c0.011-0.008,0.015-0.021,0.025-0.029c0.035-0.03,0.061-0.065,0.088-0.102c0.023-0.031,0.047-0.06,0.064-0.094   c0.017-0.035,0.026-0.073,0.037-0.112c0.012-0.043,0.023-0.084,0.026-0.128c0.001-0.014,0.008-0.025,0.008-0.039V44.483l0.533-0.42   c0.01-0.008,0.014-0.019,0.023-0.027c0.035-0.031,0.062-0.067,0.089-0.104c0.022-0.031,0.046-0.059,0.062-0.093   c0.017-0.036,0.026-0.074,0.036-0.113c0.012-0.042,0.023-0.083,0.025-0.126c0.001-0.013,0.007-0.024,0.007-0.037v-0.624v-0.001   c0-0.028-0.012-0.055-0.016-0.083C90.302,42.816,90.297,42.779,90.284,42.74z M62.944,33.045l6.951-2.97l-6.951,5.389V33.045z    M62.039,28.169l-9.796,7.6l-1.494-22.19L62.039,28.169z M49.468,13.515l1.523,22.632l-12.923-3.654L49.468,13.515z M50.961,38.085   v17.419l-5.633-5.612l-0.005-0.005l0,0c-0.002-0.002-0.005-0.003-0.008-0.005c-0.013-0.012-0.03-0.018-0.044-0.029   c-0.222-0.203-0.556-0.235-0.804-0.049L44.42,49.84l-6.079,2.602V34.506L50.961,38.085z M20.364,38.404l16.704,4.737v9.209   l-8.721,4.666l-13.331-3.78L20.364,38.404z M26.445,58.422l-11.114,8.598V55.272L26.445,58.422z M28.769,58.235l8.405-4.497   c0.042,0.067,0.094,0.124,0.158,0.171c0.021,0.016,0.04,0.03,0.063,0.043c0.093,0.053,0.195,0.092,0.31,0.092   c0.089,0,0.173-0.019,0.25-0.051l0.001,0l2.485-1.065L25.486,64.531l-10.847,4.635L28.769,58.235z M39.87,97.083l-28.13-7.967   V72.413l13.926-5.95L39.87,80.592V97.083z M41.348,79.633l-14.574-14.49l18.021-13.986l6.351,6.327   c0.038,0.039,0.087,0.064,0.134,0.092c0.02,0.012,0.035,0.028,0.056,0.037c0.007,0.003,0.012,0.008,0.019,0.011   c0.077,0.032,0.16,0.049,0.243,0.049c0.083,0,0.166-0.017,0.244-0.049c0.041-0.017,0.073-0.047,0.109-0.072   c0.012-0.008,0.026-0.004,0.037-0.013l2.305-1.79l4.3,10.516L41.348,79.633z M73.997,86.782l-13.995-3.957V67.887l13.995,3.967   V86.782z M73.791,69.851l-13.953-3.908l-4.589-11.225l2.109-5.835l21.794,6.136L73.791,69.851z M75.951,52.795l-13.142-3.7   l0.002-0.004c0.023-0.031,0.047-0.06,0.064-0.095c0.017-0.035,0.025-0.073,0.036-0.111c0.012-0.043,0.023-0.084,0.026-0.128   c0.001-0.013,0.007-0.024,0.007-0.037V37.076l11.205-8.686l14.574,14.49L75.951,52.795z"/></g><text x="0" y="115" fill="#000000" font-size="5px" font-weight="bold" font-family="'Helvetica Neue', Helvetica, Arial-Unicode, Arial, Sans-serif">Created by Gerardo Martín Martínez</text><text x="0" y="120" fill="#000000" font-size="5px" font-weight="bold" font-family="'Helvetica Neue', Helvetica, Arial-Unicode, Arial, Sans-serif">from the Noun Project</text></svg>